<svg xmlns="http://www.w3.org/2000/svg" viewBox="0 0 400 300" width="235.8" height="176.85" class="illustration styles_illustrationTablet__1DWOa"><g id="_369_chef_outline" data-name="#369_chef_outline"><path d="M151.7,168.86a11.11,11.11,0,0,0,6,9.06c3.35,1.75,7.4,1.06,11.11.33a15.5,15.5,0,0,0-4.36,5.54c-3,7.75,7.5,14.2,13.78,15.32a19.22,19.22,0,0,0,15.44-4.18c-.17.14,5,3.55,5.49,3.77a17.61,17.61,0,0,0,6.74,1.23c2.85,0,6.51.84,9.21-.5,3-1.49,6.52-6.08,7.31-9.78.61-2.81,0-7.77-2.75-8.78,4.48,1.65,9.74-.2,12.71-4.47,3.31-4.74,3.59-13.28.7-18.42s-5.88-12-11.3-13.68c-7.17-2.15-14-5.58-21.3-7.25-6.88-1.57-18-1.92-24.31,1.71-5.91,3.39-12.84,6.83-17.72,11.67C154.35,154.46,151,162.3,151.7,168.86Z" fill="#725858"></path><path d="M211,201.2c-1,0-1.94-.08-2.86-.14s-1.6-.12-2.31-.13a18.4,18.4,0,0,1-7.11-1.3,46,46,0,0,1-5.14-3.41A20.13,20.13,0,0,1,178,200.1c-4.76-.85-11.26-4.34-13.92-9.11a8.61,8.61,0,0,1-.61-7.57,12.16,12.16,0,0,1,2.32-3.64c-3.06.42-6,.4-8.61-1a12.05,12.05,0,0,1-6.49-9.83h0c-.81-7.19,3-15.29,7-19.25,4.15-4.12,9.59-7.16,14.85-10.09,1.05-.59,2.08-1.16,3.08-1.74,6.9-3.95,18.74-3.25,25-1.81a95.52,95.52,0,0,1,12.52,4.12c2.89,1.11,5.87,2.25,8.85,3.14,5.06,1.52,8.05,7.06,10.69,11.95.4.76.8,1.5,1.2,2.2,3.1,5.52,2.75,14.45-.76,19.49a12.4,12.4,0,0,1-10.61,5.48,12.31,12.31,0,0,1,.81,7.4c-.84,3.93-4.51,8.82-7.85,10.47A10.09,10.09,0,0,1,211,201.2Zm-16.55-6.82c.71.61,4.51,3.15,5.05,3.41a16.56,16.56,0,0,0,6.35,1.14c.78,0,1.58.07,2.43.13,2.25.17,4.58.34,6.33-.52,2.82-1.4,6.05-5.73,6.78-9.1.54-2.53,0-6.85-2.12-7.63h0a1,1,0,1,1,.69-1.87h0c4.07,1.49,8.82-.2,11.54-4.11,3.07-4.4,3.37-12.51.65-17.36-.4-.71-.8-1.46-1.21-2.23-2.46-4.54-5.23-9.7-9.51-11-3-.92-6.06-2.07-9-3.19a92.9,92.9,0,0,0-12.25-4c-7.38-1.69-17.85-1.69-23.58,1.6q-1.51.87-3.09,1.74c-5.15,2.88-10.47,5.85-14.42,9.77-3.72,3.68-7.14,11.28-6.43,17.61h0a10,10,0,0,0,5.43,8.28c3,1.54,6.63,1,10.46.24a1,1,0,0,1,1.08.54,1,1,0,0,1-.22,1.19,14.71,14.71,0,0,0-4.1,5.15,6.6,6.6,0,0,0,.49,5.86c2.28,4.09,8.16,7.34,12.53,8.12a18.18,18.18,0,0,0,14.64-4h0a1,1,0,0,1,1.4.14Z" fill="#093f68"></path><path d="M193.86,96.07h2.71A38.41,38.41,0,0,1,235,134.48V150a0,0,0,0,1,0,0H152.74a0,0,0,0,1,0,0v-12.8A41.12,41.12,0,0,1,193.86,96.07Z" fill="#725858"></path><path d="M235,151H152.74a1,1,0,0,1-1-1V134.48c0-22.47,18.1-39.41,42.12-39.41S236,112,236,134.48V150A1,1,0,0,1,235,151Zm-81.23-2H234V134.48c0-21.33-17.24-37.41-40.11-37.41s-40.12,16.08-40.12,37.41Z" fill="#093f68"></path><path d="M232,210.43v24.09c0,10-8.13,13.92-18.16,13.92H175.86V237.88h-20V210.43c0-13.45,11.54-24.37,25.77-24.37h24.6C220.42,186.06,232,197,232,210.43Z" fill="#ff7200"></path><path d="M213.79,249.44H175.86a1,1,0,0,1-1-1v-9.56h-19a1,1,0,0,1-1-1V210.43c0-14,12-25.37,26.76-25.37h24.61c14.76,0,26.76,11.39,26.76,25.37v24.09C233,244,226,249.44,213.79,249.44Zm-36.93-2h36.93c6.41,0,17.16-1.68,17.16-12.92V210.43c0-12.88-11.11-23.37-24.76-23.37H181.58c-13.65,0-24.76,10.49-24.76,23.37v26.45h19a1,1,0,0,1,1,1Z" fill="#093f68"></path><path d="M170.13,248.5h0a1,1,0,0,1-1-1l1.29-32.18a1,1,0,0,1,1-.95,1,1,0,0,1,1,1l-1.29,32.18A1,1,0,0,1,170.13,248.5Z" fill="#093f68"></path><path d="M216.36,249.43h0a1,1,0,0,1-1-1c.21-5.36.43-10.49.64-15.63s.43-10.26.65-15.62a1,1,0,1,1,2,.08c-.21,5.36-.43,10.49-.64,15.63s-.43,10.26-.65,15.62A1,1,0,0,1,216.36,249.43Z" fill="#093f68"></path><path d="M172.44,198.62s-4.55,4.34-4.55,12.7a23.93,23.93,0,0,0,4.55,14" fill="#ff7200"></path><path d="M172.44,226.29a1,1,0,0,1-.78-.37,24.82,24.82,0,0,1-4.77-14.6c0-8.69,4.66-13.24,4.86-13.42a1,1,0,0,1,1.38,1.44c-.06.06-4.24,4.21-4.24,12a23.22,23.22,0,0,0,4.32,13.34,1,1,0,0,1-.14,1.4A1,1,0,0,1,172.44,226.29Z" fill="#093f68"></path><path d="M215.34,198.62s4.55,4.34,4.55,12.7a23.93,23.93,0,0,1-4.55,14" fill="#ff7200"></path><path d="M215.34,226.29a1,1,0,0,1-.63-.23,1,1,0,0,1-.15-1.4,23.19,23.19,0,0,0,4.33-13.34c0-7.79-4.2-11.94-4.24-12A1,1,0,1,1,216,197.9c.2.18,4.86,4.73,4.86,13.42a24.71,24.71,0,0,1-4.78,14.6A1,1,0,0,1,215.34,226.29Z" fill="#093f68"></path><rect x="187.76" y="178.53" width="12.25" height="7.53" fill="#ffc9b0"></rect><path d="M200,187.07H187.76a1,1,0,0,1-1-1v-7.54a1,1,0,0,1,1-1H200a1,1,0,0,1,1,1v7.54A1,1,0,0,1,200,187.07Zm-11.25-2H199v-5.54H188.76Z" fill="#093f68"></path><ellipse cx="158.87" cy="148.16" rx="11.9" ry="10.26" fill="#ffc9b0"></ellipse><path d="M158.87,159.42c-7.11,0-12.9-5-12.9-11.26s5.79-11.26,12.9-11.26,12.91,5,12.91,11.26S166,159.42,158.87,159.42Zm0-20.52c-6,0-10.9,4.15-10.9,9.26s4.89,9.26,10.9,9.26,10.91-4.16,10.91-9.26S164.89,138.9,158.87,138.9Z" fill="#093f68"></path><ellipse cx="228.27" cy="148.16" rx="11.9" ry="10.26" fill="#ffc9b0"></ellipse><path d="M228.27,159.42c-7.12,0-12.9-5-12.9-11.26s5.78-11.26,12.9-11.26,12.9,5,12.9,11.26S235.38,159.42,228.27,159.42Zm0-20.52c-6,0-10.9,4.15-10.9,9.26s4.89,9.26,10.9,9.26,10.9-4.16,10.9-9.26S234.28,138.9,228.27,138.9Z" fill="#093f68"></path><path d="M227.5,127.45c.31.57.6,1.17.86,1.78,2.17,5.19,1.43,11,1.43,16.46a35.9,35.9,0,0,1-71.8,0c0-5.33-.69-10.44.58-15.65a38.34,38.34,0,0,1,11-18.89c3,4.51,10,7.49,14.87,9.4a17,17,0,0,1-1-10.07c-.22,1.06,3.08,2.75,3.76,3.18a21.45,21.45,0,0,0,6.44,2.41,59.76,59.76,0,0,0,15.59,1.84,5.48,5.48,0,0,1-2.7-3.35,8.15,8.15,0,0,1-.46-4c4.32,1.63,9,4.92,12.77,7.58A27.32,27.32,0,0,1,227.5,127.45Z" fill="#ffc9b0"></path><path d="M193.89,182.59a36.9,36.9,0,0,1-36.9-36.9c0-1.38-.05-2.77-.1-4.12-.13-3.82-.27-7.78.71-11.76a39.22,39.22,0,0,1,11.25-19.38,1,1,0,0,1,.8-.27,1,1,0,0,1,.72.44c2.34,3.56,7.36,6.14,12.36,8.2a18.19,18.19,0,0,1-.31-8.52,1,1,0,0,1,2,.24c.16.27.79.83,2.78,2l.52.31a20.39,20.39,0,0,0,6.15,2.29,58.83,58.83,0,0,0,12.7,1.79,8,8,0,0,1-1-2,9,9,0,0,1-.48-4.51,1,1,0,0,1,.51-.65,1,1,0,0,1,.82,0c4.35,1.65,9,4.92,12.77,7.54l.21.16a28.11,28.11,0,0,1,9,9.6h0c.33.61.63,1.24.9,1.87,1.82,4.34,1.69,9,1.57,13.52,0,1.12-.06,2.23-.06,3.33a36.93,36.93,0,0,1-36.9,36.9Zm-24.48-69.92a37.23,37.23,0,0,0-9.87,17.61c-.91,3.71-.78,7.36-.65,11.23.05,1.36.1,2.77.1,4.18a34.9,34.9,0,0,0,69.8,0c0-1.11,0-2.25.06-3.39.12-4.3.24-8.75-1.42-12.68a17.52,17.52,0,0,0-.81-1.7h0a26.38,26.38,0,0,0-8.39-8.92l-.22-.15a72.5,72.5,0,0,0-11-6.78,10.18,10.18,0,0,0,.48,2.18,4.5,4.5,0,0,0,2.18,2.76,1,1,0,0,1-.41,1.9A61.07,61.07,0,0,1,193.35,117a22.1,22.1,0,0,1-6.73-2.54l-.45-.27a24.47,24.47,0,0,1-2.09-1.31,16.05,16.05,0,0,0,1.25,7.24,1,1,0,0,1-.2,1.09,1,1,0,0,1-1.08.23C178.56,119.34,172.62,116.64,169.41,112.67Zm15-2Z" fill="#093f68"></path><path d="M238.6,73.77a20.11,20.11,0,0,1-17.2,19.9v10.92H164.67V93.67a20.12,20.12,0,1,1,11-38.35,20.11,20.11,0,0,1,34.83,0A20.12,20.12,0,0,1,238.6,73.77Z" fill="#fff"></path><path d="M221.4,105.59H164.67a1,1,0,0,1-1-1V94.52a21.12,21.12,0,1,1,11.54-40.45,21.11,21.11,0,0,1,35.65,0A21.12,21.12,0,1,1,222.4,94.52v10.07A1,1,0,0,1,221.4,105.59Zm-55.73-2H220.4V93.67a1,1,0,0,1,.85-1,19.12,19.12,0,1,0-10.4-36.45,1,1,0,0,1-1.27-.41,19.11,19.11,0,0,0-33.09,0,1,1,0,0,1-1.27.41,19.12,19.12,0,1,0-10.41,36.45,1,1,0,0,1,.86,1Z" fill="#093f68"></path><path d="M213.15,66.38a1,1,0,0,1-1-1,19.12,19.12,0,0,0-38.24,0,1,1,0,0,1-2,0,21.12,21.12,0,0,1,42.24,0A1,1,0,0,1,213.15,66.38Z" fill="#093f68"></path><rect x="157.8" y="100.88" width="70.47" height="10.98" rx="5.3" fill="#fff"></rect><path d="M223,112.86H163.1a6.31,6.31,0,0,1-6.3-6.3v-.37a6.31,6.31,0,0,1,6.3-6.31H223a6.31,6.31,0,0,1,6.3,6.31v.37A6.31,6.31,0,0,1,223,112.86Zm-59.87-11a4.31,4.31,0,0,0-4.3,4.31v.37a4.31,4.31,0,0,0,4.3,4.3H223a4.31,4.31,0,0,0,4.3-4.3v-.37a4.31,4.31,0,0,0-4.3-4.31Z" fill="#093f68"></path><circle cx="177.71" cy="140.99" r="3.21" fill="#093f68"></circle><circle cx="210.8" cy="140.99" r="3.21" fill="#093f68"></circle><path d="M194.6,151.62a20.54,20.54,0,0,1-3.12-.26,1,1,0,1,1,.35-2,15.24,15.24,0,0,0,4.75.05c.2-.92-1-4.36-2.7-7.59a1,1,0,1,1,1.78-.92c1.12,2.15,3.63,7.38,2.71,9.43a1.7,1.7,0,0,1-1.16,1A10.82,10.82,0,0,1,194.6,151.62Z" fill="#093f68"></path><path d="M194.64,164c-8.79,0-11.38-6.19-11.41-6.27a1,1,0,0,1,1.86-.74c.15.37,3.82,8.81,18.9,3a1,1,0,0,1,.72,1.87A28.21,28.21,0,0,1,194.64,164Z" fill="#093f68"></path><path d="M184.93,134.63h-.2l-14.93-1.87a1.59,1.59,0,0,1,.39-3.15l14.93,1.87a1.59,1.59,0,0,1-.19,3.16Z" fill="#093f68"></path><path d="M203.58,134.63a1.59,1.59,0,0,1-.19-3.16l14.93-1.87a1.59,1.59,0,0,1,.39,3.15l-14.93,1.87Z" fill="#093f68"></path><path d="M203.58,241.58a1,1,0,0,1-1-1V203.91L181,186.85a1,1,0,0,1,1.24-1.57l22,17.36a1,1,0,0,1,.38.79v37.15A1,1,0,0,1,203.58,241.58Z" fill="#093f68"></path><path d="M195.2,197.82a1,1,0,0,1-.67-.27,1,1,0,0,1-.07-1.41l9.15-10a1,1,0,1,1,1.47,1.34l-9.14,10A1,1,0,0,1,195.2,197.82Z" fill="#093f68"></path><circle cx="196.33" cy="207.48" r="2.75" fill="#093f68"></circle><circle cx="196.33" cy="219.16" r="2.75" fill="#093f68"></circle><path d="M223.45,232.52h-39v15.91h37.05A10.48,10.48,0,0,0,232,238v-5.43" fill="#ff7200"></path><path d="M221.46,249.43H184.41a1,1,0,0,1-1-1V232.52a1,1,0,0,1,1-1h39a1,1,0,0,1,0,2h-38v13.91h36.05A9.49,9.49,0,0,0,231,238v-5.43a1,1,0,0,1,2,0V238A11.5,11.5,0,0,1,221.46,249.43Z" fill="#093f68"></path><path d="M165.26,229.14l38.11,3.38v15.91H166.31A10.49,10.49,0,0,1,155.82,238v-5.43" fill="#ff7200"></path><path d="M203.37,249.43H166.31A11.5,11.5,0,0,1,154.82,238v-5.43a1,1,0,0,1,2,0V238a9.5,9.5,0,0,0,9.49,9.48h36.06v-14l-37.2-3.31a1,1,0,1,1,.18-2l38.11,3.39a1,1,0,0,1,.91,1v15.91A1,1,0,0,1,203.37,249.43Z" fill="#093f68"></path><path d="M261.89,182.46,247,173a6.78,6.78,0,0,0-9.37,2.09l-9,14.21a11.91,11.91,0,0,0,3.66,16.42l.57.36-28,44a3.07,3.07,0,0,0,.94,4.22h0a3.06,3.06,0,0,0,4.22-.94l28-44,.57.36A11.89,11.89,0,0,0,254.93,206l9-14.22A6.78,6.78,0,0,0,261.89,182.46ZM235.31,197a2,2,0,0,1-3.3-2.09l10.55-16.59a2,2,0,1,1,3.29,2.1Zm6.53,4.15a2,2,0,0,1-3.3-2.09l10.55-16.59a2,2,0,1,1,3.29,2.1Zm6.53,4.15a2,2,0,0,1-3.3-2.09l10.55-16.59a1.94,1.94,0,0,1,2.69-.6,1.91,1.91,0,0,1,.86,1.22,1.94,1.94,0,0,1-.26,1.48Z" fill="#ffbc0e" stroke="#093f68" stroke-linecap="round" stroke-linejoin="round" stroke-width="2"></path><path d="M203.37,232.52a55.82,55.82,0,0,1,9.67-7.65,62.86,62.86,0,0,1,15.34-6.17c5.85-1.53,5.34,3.12,2.29,5.15a21.66,21.66,0,0,1-6.39,2.8s4.35,3.15,0,12.84-20.94,8.94-20.94,8.94Z" fill="#ffc9b0"></path><path d="M204.28,249.45c-.53,0-.87,0-.95,0a1,1,0,0,1-1-1V232.52a1,1,0,0,1,.29-.7,55.88,55.88,0,0,1,9.87-7.81,64.72,64.72,0,0,1,15.59-6.28c3.82-1,5.1.44,5.53,1.38.76,1.71-.3,4.16-2.43,5.58a22.6,22.6,0,0,1-5.19,2.49c1.14,1.84,2.3,5.75-.81,12.71C221.24,248.81,208,249.45,204.28,249.45Zm.09-16.51v14.5c3.5,0,15.6-.7,19-8.36,3.89-8.71.44-11.52.29-11.63a1,1,0,0,1,.38-1.78,20.9,20.9,0,0,0,6.05-2.65c1.37-.91,2-2.38,1.71-3.09s-1.52-.7-3.19-.26a62.19,62.19,0,0,0-15.08,6.06A54.55,54.55,0,0,0,204.37,232.94Z" fill="#093f68"></path><rect x="180.07" y="229.63" width="13.29" height="5.25" rx="2.22" transform="translate(-64.95 391.85) rotate(-83.58)" fill="#ffc9b0"></rect><path d="M186.63,239.92l-.36,0-.81-.09a3.22,3.22,0,0,1-2.84-3.56l1-8.8a3.22,3.22,0,0,1,1.19-2.16,3.16,3.16,0,0,1,2.37-.68l.81.09a3.23,3.23,0,0,1,2.84,3.56l-1,8.8A3.23,3.23,0,0,1,186.63,239.92Zm.17-13.33a1.2,1.2,0,0,0-1.2,1.08h0l-1,8.81a1.21,1.21,0,0,0,1.07,1.34l.81.09a1.22,1.22,0,0,0,1.35-1.07l1-8.81a1.22,1.22,0,0,0-1.07-1.34l-.82-.09Zm-2.2,1h0Z" fill="#093f68"></path><rect x="175.07" y="229.07" width="13.29" height="5.25" rx="2.22" transform="translate(-68.83 386.38) rotate(-83.58)" fill="#ffc9b0"></rect><path d="M181.63,239.36l-.36,0-.81-.09a3.22,3.22,0,0,1-2.84-3.56l1-8.81a3.2,3.2,0,0,1,1.19-2.15,3.15,3.15,0,0,1,2.36-.68l.82.09a3.21,3.21,0,0,1,2.83,3.55l-1,8.81a3.23,3.23,0,0,1-3.19,2.86ZM181.8,226a1.2,1.2,0,0,0-.75.26,1.15,1.15,0,0,0-.45.82h0l-1,8.8a1.21,1.21,0,0,0,.25.9,1.27,1.27,0,0,0,.82.45l.81.09a1.22,1.22,0,0,0,1.35-1.07l1-8.81a1.22,1.22,0,0,0-1.08-1.34l-.81-.1Zm-2.2,1h0Z" fill="#093f68"></path><rect x="170.07" y="228.5" width="13.29" height="5.25" rx="2.22" transform="translate(-72.72 380.91) rotate(-83.58)" fill="#ffc9b0"></rect><path d="M176.63,238.79a2.17,2.17,0,0,1-.36,0l-.82-.09a3.21,3.21,0,0,1-2.83-3.55l1-8.81a3.12,3.12,0,0,1,1.19-2.15,3.2,3.2,0,0,1,2.36-.69l.82.1a3.21,3.21,0,0,1,2.83,3.55l-1,8.81A3.21,3.21,0,0,1,176.63,238.79Zm.17-13.33a1.26,1.26,0,0,0-.76.27,1.23,1.23,0,0,0-.45.81h0l-1,8.81a1.23,1.23,0,0,0,1.07,1.35l.82.09a1.19,1.19,0,0,0,.89-.26,1.15,1.15,0,0,0,.45-.82l1-8.8a1.21,1.21,0,0,0-.25-.9,1.27,1.27,0,0,0-.82-.45l-.81-.09Zm-2.2,1h0Z" fill="#093f68"></path><rect x="165.06" y="227.94" width="13.29" height="5.25" rx="2.22" transform="translate(-76.6 375.44) rotate(-83.58)" fill="#ffc9b0"></rect><path d="M171.63,238.23a2.36,2.36,0,0,1-.37,0l-.81-.09a3.23,3.23,0,0,1-2.84-3.55l1-8.81a3.22,3.22,0,0,1,1.19-2.16,3.27,3.27,0,0,1,2.37-.68l.81.09a3.22,3.22,0,0,1,2.84,3.56l-1,8.81A3.22,3.22,0,0,1,171.63,238.23Zm.17-13.33a1.18,1.18,0,0,0-.76.27,1.23,1.23,0,0,0-.45.81h0l-1,8.81a1.22,1.22,0,0,0,1.07,1.34l.82.09a1.2,1.2,0,0,0,1.34-1.07l1-8.8a1.22,1.22,0,0,0-1.07-1.35l-.81-.09Zm-2.2,1h0Z" fill="#093f68"></path></g></svg>