<svg xmlns="http://www.w3.org/2000/svg" viewBox="0 0 400 300" width="235.8" height="176.85" class="illustration styles_illustrationTablet__1DWOa"><g id="_435_meal_flatline" data-name="#435_meal_flatline"><ellipse cx="202.07" cy="160.36" rx="154.51" ry="73.85" fill="#231f20"></ellipse><path d="M202.07,234.74C116.57,234.74,47,201.37,47,160.36S116.57,86,202.07,86s155.05,33.37,155.05,74.39S287.56,234.74,202.07,234.74Zm0-147.69c-84.91,0-154,32.88-154,73.31s69.07,73.31,154,73.31,154-32.89,154-73.31S287,87.05,202.07,87.05Z" fill="#231f20"></path><ellipse cx="202.07" cy="156.1" rx="154.51" ry="73.85" fill="#fff"></ellipse><path d="M202.07,230.45c-85.48,0-155-33.35-155-74.35s69.54-74.34,155-74.34,155,33.35,155,74.34S287.54,230.45,202.07,230.45Zm0-147.69c-84.93,0-154,32.9-154,73.34s69.09,73.35,154,73.35,154-32.9,154-73.35S287,82.76,202.07,82.76Z" fill="#231f20"></path><path d="M202.07,208.08c-59.67,0-108.21-23.32-108.21-52s48.54-52,108.21-52,108.2,23.31,108.2,52S261.73,208.08,202.07,208.08Zm0-103c-59.12,0-107.21,22.87-107.21,51s48.09,51,107.21,51,107.2-22.87,107.2-51S261.18,105.13,202.07,105.13Z" fill="#d1d3d4"></path><path d="M229.46,117.18S202,125.62,198,120.31s-1-7-5.41-9.46-11.44-1.85-10.24-6.33,3.9-3.85,2.49-8-4.52-9-.86-13,7.77.87,9.77-1.1,0-4.31,3.65-3.29,3.29,4.32,6.1,3.51,4.32-3,7,.37,1.08,13.4,5.22,12.6,8-1.94,8.59,2.7-5.51,8.73-2.55,11.4,9.09,3.19,9.57,5.68S229.46,117.18,229.46,117.18Z" fill="#d79218"></path><path d="M204.26,122.48c-3.13,0-5.59-.52-6.61-1.91a12.59,12.59,0,0,1-2.52-5.61c-.32-1.54-.52-2.47-2.75-3.73a21.28,21.28,0,0,0-5-1.75c-2.39-.64-4.46-1.19-5.29-2.63a3.12,3.12,0,0,1-.2-2.45,9.87,9.87,0,0,1,1.91-3.76c.87-1.14,1.34-1.77.58-4-.25-.77-.56-1.55-.89-2.37-1.43-3.57-3.05-7.62.13-11,2.33-2.51,4.81-1.76,6.81-1.17,1.44.43,2.36.66,3,.06a3.61,3.61,0,0,0,1-2,2,2,0,0,1,.74-1.43,3.11,3.11,0,0,1,2.38.06A6.5,6.5,0,0,1,201,81.11c.77.92,1.19,1.42,2.4,1.08a13.5,13.5,0,0,0,1.8-.71c1.76-.8,3.42-1.56,5.62,1.23,1.17,1.47,1.55,4.07,1.91,6.58s.72,4.92,1.77,5.67a1.39,1.39,0,0,0,1.11.19l.88-.17c2.59-.52,5-1,6.64.12a4.29,4.29,0,0,1,1.59,3.13c.32,2.28-.88,4.39-1.94,6.25-1.29,2.28-2,3.74-.75,4.87a16.56,16.56,0,0,0,4.95,2.58c2.39.93,4.44,1.74,4.76,3.35a2.08,2.08,0,0,1-.43,2,2.11,2.11,0,0,1-1.83.34C227.81,118.15,213.27,122.48,204.26,122.48ZM187.45,82.33a4.09,4.09,0,0,0-3.13,1.47c-2.8,3-1.36,6.62,0,10.11.32.8.65,1.62.91,2.41.91,2.71.19,3.66-.71,4.86a9,9,0,0,0-1.77,3.45,2.27,2.27,0,0,0,.12,1.77c.64,1.12,2.63,1.65,4.74,2.21a22.06,22.06,0,0,1,5.17,1.85c2.59,1.45,2.85,2.72,3.19,4.32a11.82,11.82,0,0,0,2.36,5.26c3.07,4.15,23.39-1,31-3.29a.36.36,0,0,1,.25,0c.2,0,.83.15,1.12-.12s.23-.77.15-1.18c-.22-1.13-2.15-1.88-4.2-2.68a17.35,17.35,0,0,1-5.22-2.75c-1.87-1.68-.69-3.77.57-6,1-1.74,2.1-3.71,1.83-5.69a3.48,3.48,0,0,0-1.23-2.52c-1.28-.91-3.55-.46-5.94,0l-.89.18a2.23,2.23,0,0,1-1.79-.34c-1.37-1-1.74-3.54-2.14-6.27-.35-2.39-.71-4.87-1.73-6.16-1.77-2.23-2.81-1.76-4.55-1a13.48,13.48,0,0,1-1.92.76c-1.77.51-2.53-.4-3.34-1.36a5.64,5.64,0,0,0-3-2.15c-1.09-.31-1.51-.25-1.67-.15s-.24.39-.33.84a4.5,4.5,0,0,1-1.22,2.48c-1,1-2.4.6-3.85.17A9.94,9.94,0,0,0,187.45,82.33Z" fill="#231f20"></path><path d="M229.46,117.68a.57.57,0,0,1-.18,0c-.32-.12-32-12-42.33-29.08a.5.5,0,1,1,.85-.52c10.12,16.75,41.52,28.54,41.83,28.66a.5.5,0,0,1,.3.64A.52.52,0,0,1,229.46,117.68Z" fill="#231f20"></path><path d="M197.51,101.75a14.82,14.82,0,0,1-9.18-3.6.5.5,0,1,1,.67-.73c.05,0,4.62,4.13,10.25,3.19a.5.5,0,0,1,.16,1A11.3,11.3,0,0,1,197.51,101.75Z" fill="#231f20"></path><path d="M204,103.9a.49.49,0,0,1-.49-.45c-1.12-11-2-14-2-14.08a.5.5,0,0,1,1-.28c0,.12.86,3.09,2,14.26a.5.5,0,0,1-.44.55Z" fill="#231f20"></path><path d="M200.06,109.94a17.78,17.78,0,0,1-3.66-.3.49.49,0,0,1-.39-.59.5.5,0,0,1,.6-.39c4.21.92,14.17-.72,14.27-.74a.51.51,0,0,1,.58.41.51.51,0,0,1-.41.58A80.72,80.72,0,0,1,200.06,109.94Z" fill="#231f20"></path><path d="M104.26,80.73l10.24,38.83c0,4,11.34,7.21,25.33,7.21s25.33-3.23,25.33-7.21L175.4,80.73Z" fill="#fff"></path><path d="M139.83,127.27c-12.64,0-25.71-2.86-25.83-7.64L103.78,80.86a.5.5,0,0,1,.09-.44.49.49,0,0,1,.39-.19H175.4a.51.51,0,0,1,.4.19.53.53,0,0,1,.08.44l-10.22,38.77C165.54,124.41,152.47,127.27,139.83,127.27Zm-34.92-46L115,119.43a.57.57,0,0,1,0,.13c0,3.24,10,6.71,24.83,6.71s24.83-3.47,24.83-6.71a.59.59,0,0,1,0-.13l10.07-38.2Z" fill="#231f20"></path><path d="M175.4,80.73a3.93,3.93,0,0,1-1.34,2.75c-4.23,4.27-18,7.37-34.23,7.37s-30-3.1-34.22-7.37a3.91,3.91,0,0,1-1.35-2.75c0-5.59,15.93-10.12,35.57-10.12S175.4,75.14,175.4,80.73Z" fill="#fff"></path><path d="M139.83,91.35c-16.23,0-30.13-3-34.58-7.52a4.35,4.35,0,0,1-1.49-3.1c0-6,15.84-10.62,36.07-10.62s36.07,4.66,36.07,10.62a4.39,4.39,0,0,1-1.49,3.11C170,88.33,156.06,91.35,139.83,91.35Zm0-20.24c-21,0-35.07,5-35.07,9.62a3.44,3.44,0,0,0,1.2,2.4c4.21,4.25,18.14,7.22,33.87,7.22s29.66-3,33.87-7.22a3.44,3.44,0,0,0,1.2-2.4C174.9,76.08,160.81,71.11,139.83,71.11Z" fill="#231f20"></path><path d="M174.06,83.48c-4.23,4.27-18,7.37-34.23,7.37-9.47,0-19.57-.56-28.65-4.12-1.06-.42-6.7-2.58-5.81-4.46,1-2.2,9.76-.79,11.62-1.6,1.29-.57,2.37-1.79,3.73-2a15.47,15.47,0,0,1,2.79.16,12.84,12.84,0,0,0,4.12-1.12c3-1,6.19-1,9.32-.89a27.71,27.71,0,0,1,6.55.67c2.05.54,4.09,1.55,6.17,1.26,1.15-.15,2.25-.7,3.4-.77a11.54,11.54,0,0,1,3.12.49c3.27.7,6.57-.26,9.71.79C166.51,79.44,174.22,83.32,174.06,83.48Z" fill="#d79218"></path><path d="M139.83,91.3c-9,0-19.47-.49-28.81-4.15-3.64-1.43-5.6-2.69-6.08-3.89a1.43,1.43,0,0,1,0-1.18c.77-1.62,4.3-1.6,7.73-1.57a15.8,15.8,0,0,0,4.11-.25,9,9,0,0,0,1.42-.86,6.35,6.35,0,0,1,2.41-1.2,6,6,0,0,1,1.84,0,7.62,7.62,0,0,0,1,.1,8,8,0,0,0,3-.74l1-.36c3.11-1,6.34-1,9.47-.9a28.93,28.93,0,0,1,6.65.67c.56.15,1.11.33,1.66.51a9.8,9.8,0,0,0,4.34.75,10.83,10.83,0,0,0,1.47-.36,9.12,9.12,0,0,1,2-.42,8.81,8.81,0,0,1,2.57.35c.22.05.45.11.68.15a18.51,18.51,0,0,0,4.33.26,16.18,16.18,0,0,1,5.42.55c.08,0,8.29,3.88,8.45,4.56a.48.48,0,0,1-.11.43h0C169.93,88.28,156.05,91.3,139.83,91.3Zm-28.27-9.9c-2.5,0-5.33.1-5.79,1.06a.64.64,0,0,0,0,.47c.21.53,1.21,1.67,5.51,3.36,9.27,3.63,19.63,4.12,28.55,4.12,15.3,0,28.9-2.81,33.53-6.88-1.54-.91-7.07-3.7-7.6-3.88a15.32,15.32,0,0,0-5.12-.49,20.53,20.53,0,0,1-4.54-.28l-.7-.16a7.87,7.87,0,0,0-2.3-.32,7.69,7.69,0,0,0-1.77.38,12,12,0,0,1-1.6.39,10.66,10.66,0,0,1-4.73-.79c-.54-.17-1.08-.35-1.62-.49a27.89,27.89,0,0,0-6.44-.65c-3.05-.07-6.2-.14-9.17.86l-1,.35a8.56,8.56,0,0,1-3.31.8,10.92,10.92,0,0,1-1.15-.11,4.86,4.86,0,0,0-1.56-.06,5.72,5.72,0,0,0-2.05,1,9.65,9.65,0,0,1-1.57,1,14.67,14.67,0,0,1-4.48.32Zm62.5,2.08h0Zm0,0h0Zm-.32-.31Z" fill="#231f20"></path><path d="M206.87,98.49c1.81-3.36.91-6.13,1.26-9.63.31-3,3.83-4.63,3.94-7.35a13.72,13.72,0,0,0-.59-2.62A3.65,3.65,0,0,1,216,75.05a2.69,2.69,0,0,0,1.2.27,1.72,1.72,0,0,0,1-.8c1.14-1.6,1.55-3.61,2.49-5.34s2.83-3.28,4.73-2.76c1.29.36,2.2,1.58,3.49,2,3,.87,5.78-3.24,8.83-2.48a4.3,4.3,0,0,1,2.81,3.16,23.12,23.12,0,0,1,.44,4.4,3.68,3.68,0,0,0,.39,1.61c.77,1.29,2.58,1.31,4,1.71a6.14,6.14,0,0,1,2.35,10.55c-1.55,1.34-4,2.29-4,4.33a9.82,9.82,0,0,0,.56,2.29,4.27,4.27,0,0,1-2.17,4.63c-2.36,1.21-6,.35-7.17,2.73-.76,1.56.22,3.59-.62,5.11-1,1.87-3.82,1.49-5.83.74-1.72-.63-3.81-1.33-5.51-.33s-1.87,3.53-3.94,3.66c-1.54.1-2.59-1.52-4-2.16-1.58-.72-3.4-.15-5.06.36s-3.58.88-5-.12-1.7-3.39-1.05-5.16S206,100.16,206.87,98.49Z" fill="#d79218"></path><path d="M219,110.93a4.44,4.44,0,0,1-2.66-1.27,6.69,6.69,0,0,0-1.38-.93c-1.4-.64-3-.14-4.66.35s-3.88,1-5.46-.15c-1.8-1.28-1.89-3.85-1.2-5.69a16.29,16.29,0,0,1,1.73-3.15c.39-.59.78-1.19,1.11-1.81h0c1.19-2.19,1.16-4.08,1.13-6.26a29.48,29.48,0,0,1,.09-3.21,7.61,7.61,0,0,1,2.16-4,5.92,5.92,0,0,0,1.77-3.27,4.14,4.14,0,0,0-.29-1.42A8,8,0,0,1,211,79a4.11,4.11,0,0,1,5.11-4.34l.26.1a1.67,1.67,0,0,0,.73.16c.24,0,.47-.23.74-.62a13,13,0,0,0,1.44-3,20.83,20.83,0,0,1,1-2.33c1-1.85,3.08-3.56,5.24-3A6,6,0,0,1,227.49,67a5.66,5.66,0,0,0,1.59.9c1.35.39,2.69-.37,4.1-1.18s3-1.72,4.72-1.3A4.75,4.75,0,0,1,241,68.93a14.85,14.85,0,0,1,.39,3.29c0,.4,0,.8.06,1.2a3.25,3.25,0,0,0,.34,1.41c.48.82,1.53,1,2.65,1.26.38.08.75.15,1.11.25a6.59,6.59,0,0,1,2.52,11.32,16.38,16.38,0,0,1-1.4,1c-1.25.87-2.44,1.69-2.45,3a4.46,4.46,0,0,0,.3,1.33,8.34,8.34,0,0,1,.26.85A4.71,4.71,0,0,1,242.4,99a10.19,10.19,0,0,1-3.21.82c-1.69.24-3.15.45-3.76,1.71a4.75,4.75,0,0,0-.24,2.29,5.13,5.13,0,0,1-.39,2.84c-1.42,2.55-5.24,1.37-6.38.94-1.78-.66-3.65-1.23-5.13-.36a4.55,4.55,0,0,0-1.35,1.56c-.63,1-1.34,2.06-2.78,2.16Zm-5.51-3.4a4.37,4.37,0,0,1,1.84.38,7.61,7.61,0,0,1,1.56,1A3.44,3.44,0,0,0,219.1,110c1-.06,1.5-.84,2.09-1.75a5.42,5.42,0,0,1,1.65-1.85c2-1.16,4.43-.24,5.89.31,2,.74,4.43,1,5.29-.55a4.32,4.32,0,0,0,.28-2.36,5.28,5.28,0,0,1,.33-2.72c.82-1.69,2.65-2,4.43-2.2a10,10,0,0,0,2.94-.73A3.85,3.85,0,0,0,243.93,94a5.11,5.11,0,0,0-.23-.76,4.94,4.94,0,0,1-.34-1.63c0-1.73,1.45-2.73,2.83-3.68a14.64,14.64,0,0,0,1.32-1,5.68,5.68,0,0,0-2.17-9.77c-.34-.1-.69-.17-1.05-.24-1.2-.25-2.55-.53-3.24-1.68a4.07,4.07,0,0,1-.46-1.8q0-.61-.06-1.23a13.55,13.55,0,0,0-.37-3.09,3.88,3.88,0,0,0-2.48-2.85c-1.33-.33-2.65.42-4.05,1.22s-3.09,1.75-4.8,1.26a6.28,6.28,0,0,1-1.86-1,5.61,5.61,0,0,0-1.62-.91c-1.7-.46-3.38,1-4.22,2.54a19.11,19.11,0,0,0-1,2.22,14.54,14.54,0,0,1-1.55,3.17,2.13,2.13,0,0,1-1.33,1,2.41,2.41,0,0,1-1.18-.2l-.23-.09a3.22,3.22,0,0,0-4,3.35,7.94,7.94,0,0,0,.26,1,4.75,4.75,0,0,1,.33,1.73c-.06,1.5-1,2.67-2,3.81a6.9,6.9,0,0,0-2,3.56,25.17,25.17,0,0,0-.08,3.1,12.39,12.39,0,0,1-1.24,6.71c-.35.65-.76,1.27-1.15,1.87a15.05,15.05,0,0,0-1.65,3c-.58,1.58-.47,3.69.89,4.65s3.13.5,4.61,0A12.33,12.33,0,0,1,213.48,107.53Z" fill="#231f20"></path><path d="M207.88,105.32a.52.52,0,0,1-.33-.12.51.51,0,0,1-.05-.71,88.58,88.58,0,0,1,15.15-13.24c8.61-5.77,13.88-13.31,14.47-20.68a.52.52,0,0,1,.54-.46.5.5,0,0,1,.46.54c-.62,7.79-5.92,15.4-14.91,21.43a87,87,0,0,0-15,13.07A.48.48,0,0,1,207.88,105.32Z" fill="#231f20"></path><path d="M227.87,88.22a.51.51,0,0,1-.49-.38l-.09-.34c-.38-1.44-1.19-4.43.08-13.3a.51.51,0,0,1,.57-.42.5.5,0,0,1,.42.57c-1.24,8.66-.47,11.51-.1,12.88l.09.37a.48.48,0,0,1-.36.6Z" fill="#231f20"></path><path d="M222.93,92.17a.5.5,0,0,1,0-1,83.31,83.31,0,0,0,14.59-1.48.5.5,0,0,1,.22,1,84.56,84.56,0,0,1-14.8,1.5Z" fill="#231f20"></path><path d="M218.35,94.48a.49.49,0,0,1-.49-.43c-.06-.4-1.35-9.91-.1-13.49a.5.5,0,0,1,.64-.3.5.5,0,0,1,.31.63c-1.17,3.35.12,12.93.14,13a.51.51,0,0,1-.43.56Z" fill="#231f20"></path><path d="M246.13,83.43a12.52,12.52,0,0,1,2.29-.13c3.63.14,6.91,2.1,10.38,3.18,5.06,1.57,10.48,1.25,15.76,1.67,19.13,1.5,25.46,8.44,36.39,22.49,1.9,2.43,3.88,5.13,3.81,8.21,0,2-1,4-.7,6,.61,4.36,6.09,5.8,9.28,8.83,3.52,3.35,4.12,9,2.39,13.56s-5.4,8.1-9.41,10.86c-8.6,5.94-18.93,8.76-29.08,11.28-19.63,4.87-39.39,5.12-58.79-1.74-3.45-1.22-6.84-2.68-10.44-3.35-5.07-.95-10.28-.28-15.44-.37s-10.65-1.09-14.35-4.68c-6.19-6-13.81-18.48-11.63-27.32,1.68-6.8,7.62-10.55,13.1-14.13,6.31-4.14,9.1-7.3,14-12.82,10-11.17,24.62-17,38.78-20.74A30,30,0,0,1,246.13,83.43Z" fill="#fff"></path><path d="M259.59,173.45a93.14,93.14,0,0,1-31.31-5.34l-2.4-.88a48.85,48.85,0,0,0-8-2.45,49,49,0,0,0-10.41-.43c-1.62.05-3.3.1-4.94.07-6.65-.11-11.46-1.69-14.7-4.82-6.24-6-14-18.67-11.77-27.8,1.69-6.83,7.4-10.57,12.93-14.18l.38-.25c6.18-4,8.86-7.05,13.74-12.51l.21-.23c11-12.36,27.56-17.84,39-20.88a28.94,28.94,0,0,1,3.68-.81h0a13.18,13.18,0,0,1,2.38-.14,21.65,21.65,0,0,1,7.17,2c1.09.44,2.22.89,3.34,1.24a43.79,43.79,0,0,0,11.19,1.42c1.46,0,3,.11,4.45.23,19.45,1.53,26,8.83,36.76,22.68,2.1,2.7,4,5.39,3.91,8.53a14.35,14.35,0,0,1-.39,2.65,9.53,9.53,0,0,0-.32,3.27c.38,2.66,2.78,4.18,5.33,5.79a23.93,23.93,0,0,1,3.8,2.75c3.46,3.29,4.47,9,2.51,14.09-1.53,4-4.76,7.77-9.58,11.1-8.57,5.91-18.73,8.74-29.25,11.35A115.2,115.2,0,0,1,259.59,173.45Zm-48.16-10.18a36.55,36.55,0,0,1,6.68.52,50.91,50.91,0,0,1,8.12,2.5c.79.3,1.59.59,2.39.87,18.16,6.43,37.29,7,58.5,1.73,10.43-2.58,20.49-5.39,28.92-11.2,4.65-3.21,7.75-6.79,9.22-10.63,1.79-4.7.86-10.05-2.27-13a23.7,23.7,0,0,0-3.64-2.63c-2.63-1.65-5.35-3.37-5.79-6.49a10.45,10.45,0,0,1,.33-3.62,12,12,0,0,0,.37-2.46c.07-2.81-1.71-5.34-3.7-7.9-10.89-14-17-20.8-36-22.29-1.47-.12-3-.18-4.42-.24A44,44,0,0,1,258.65,87c-1.16-.36-2.3-.82-3.41-1.26a20.49,20.49,0,0,0-6.83-1.89,11.32,11.32,0,0,0-2.21.13h0a30.4,30.4,0,0,0-3.57.78c-18,4.79-30.25,11.33-38.53,20.59l-.2.23c-4.77,5.34-7.65,8.56-13.94,12.67l-.39.26c-5.36,3.5-10.9,7.13-12.5,13.58-2.13,8.65,5.6,21.13,11.49,26.84,3.05,3,7.64,4.44,14,4.54,1.63,0,3.29,0,4.9-.07C208.79,163.31,210.11,163.27,211.43,163.27Zm34.7-79.84h0Z" fill="#231f20"></path><path d="M280.05,124.66a1,1,0,0,0-1.23-.69l-11.38,4.21a1,1,0,0,0-.69,1.23,1,1,0,0,0,1.23.7l11.37-4.22A1,1,0,0,0,280.05,124.66Z" fill="#d1d3d4"></path><path d="M257.63,140.73l-13.51.66c-1.28.07-1.28,2.07,0,2l13.51-.66C258.92,142.67,258.92,140.67,257.63,140.73Z" fill="#d1d3d4"></path><path d="M276,146.44a1,1,0,0,0-1.23-.69,21.4,21.4,0,0,1-7,1.17,1,1,0,0,0-1,1,1,1,0,0,0,1,1,22.94,22.94,0,0,0,7.57-1.25A1,1,0,0,0,276,146.44Z" fill="#d1d3d4"></path><path d="M296.22,131.61a1,1,0,0,0-1.36-.36l-5.07,2.25a1,1,0,0,0-.36,1.37,1,1,0,0,0,1.37.36l5.07-2.25A1,1,0,0,0,296.22,131.61Z" fill="#d1d3d4"></path><path d="M239.61,109.15h-7.32a1,1,0,0,0,0,2h7.32A1,1,0,0,0,239.61,109.15Z" fill="#d1d3d4"></path><path d="M225,122.67h-3.38a1,1,0,0,0,0,2H225a1,1,0,0,0,0-2Z" fill="#d1d3d4"></path><path d="M249.15,126.19q-.63-2.52-1.24-5a1,1,0,1,0-1.93.53q.61,2.52,1.24,5a1,1,0,0,0,1.23.7A1,1,0,0,0,249.15,126.19Z" fill="#d1d3d4"></path><path d="M269.49,99.68a24.76,24.76,0,0,1-9.29,3.45,1,1,0,0,0-.7,1.23,1,1,0,0,0,1.23.7,26.2,26.2,0,0,0,9.77-3.66C271.59,100.72,270.59,99,269.49,99.68Z" fill="#d1d3d4"></path><path d="M223.16,98.15l-3.32-1.81a1,1,0,0,0-1,1.72l3.32,1.82a1,1,0,1,0,1-1.73Z" fill="#d1d3d4"></path><path d="M219.34,111.37a19,19,0,0,0-7.3,1.78,1,1,0,0,0-.36,1.36,1,1,0,0,0,1.37.36,16.49,16.49,0,0,1,6.29-1.5,1,1,0,0,0,1-1A1,1,0,0,0,219.34,111.37Z" fill="#d1d3d4"></path><path d="M290.18,153.73a1,1,0,0,0-1.23.7c-.62,2-1.23,4.1-1.85,6.14a1,1,0,0,0,.7,1.23,1,1,0,0,0,1.23-.69c.62-2.05,1.23-4.1,1.85-6.15A1,1,0,0,0,290.18,153.73Z" fill="#d1d3d4"></path><path d="M243,152.16a1,1,0,0,0-1.37.36,20.25,20.25,0,0,1-8.21,6.26,1,1,0,0,0-.36,1.37,1,1,0,0,0,1.37.36,22.3,22.3,0,0,0,8.93-7A1,1,0,0,0,243,152.16Z" fill="#d1d3d4"></path><path d="M220.41,143.63l-3.34-2.3a1,1,0,0,0-1.37.36,1,1,0,0,0,.36,1.36l3.34,2.31a1,1,0,0,0,1.37-.36A1,1,0,0,0,220.41,143.63Z" fill="#d1d3d4"></path><path d="M310,141.26a13.47,13.47,0,0,1-6.25-1,1,1,0,0,0-1.37.36,1,1,0,0,0,.36,1.37,15.76,15.76,0,0,0,7.26,1.28,1,1,0,0,0,1-1A1,1,0,0,0,310,141.26Z" fill="#d1d3d4"></path><path d="M297.62,109.68c-.24,0-.47,0-.7-.06l-.15,0h-.09l-.29,0a13.29,13.29,0,0,1-1.42-.32c-.45-.13-.9-.29-1.33-.46l-.14-.06,0,0-.32-.14c-.23-.11-.45-.23-.67-.35a1,1,0,1,0-1,1.73,15,15,0,0,0,6.16,1.76,1,1,0,0,0,1-1A1,1,0,0,0,297.62,109.68Z" fill="#d1d3d4"></path><path d="M212.42,128.47a1,1,0,0,0-1.23-.7l-3.94,1.13a1,1,0,0,0-.7,1.23,1,1,0,0,0,1.23.7l3.94-1.13A1,1,0,0,0,212.42,128.47Z" fill="#d1d3d4"></path><path d="M207.8,153.55a1,1,0,0,0-1.37-.36,4.37,4.37,0,0,1-1,.55l-.12,0-.22.08a5,5,0,0,1-.55.17,5.78,5.78,0,0,1-.57.12.93.93,0,0,1-.23,0c.14,0,.15,0,0,0l-.16,0a7.36,7.36,0,0,1-1.15,0,1,1,0,0,0-1,1,1,1,0,0,0,1,1,8.45,8.45,0,0,0,5-1.3A1,1,0,0,0,207.8,153.55Z" fill="#d1d3d4"></path><path d="M251.23,94.7q-1.11-2.82-2.21-5.65a1,1,0,0,0-1.23-.69,1,1,0,0,0-.7,1.23l2.21,5.64a1,1,0,0,0,1.93-.53Z" fill="#d1d3d4"></path><path d="M279.44,116.08,278.32,111a1,1,0,0,0-1.93.53q.56,2.53,1.13,5.07a1,1,0,0,0,1.23.7A1,1,0,0,0,279.44,116.08Z" fill="#d1d3d4"></path><path d="M235.81,135.35l-1.68-1.69a1.07,1.07,0,0,0-.71-.29,1,1,0,0,0-.71,1.7l1.69,1.69a1,1,0,0,0,.71.3,1,1,0,0,0,.7-.3,1,1,0,0,0,0-1.41Z" fill="#d1d3d4"></path><path d="M269.16,161.57a7,7,0,0,1-.91-.2,3.22,3.22,0,0,1-.44-.14l-.2-.07-.13,0c-.25-.12-.5-.24-.74-.38l-.39-.25-.17-.12-.14-.1-.1-.08-.19-.16c-.11-.09-.21-.19-.31-.29a6.57,6.57,0,0,1-.61-.68l0-.05-.13-.17-.27-.43a8,8,0,0,1-.41-.83,1,1,0,0,0-1.37-.36,1,1,0,0,0-.36,1.37,8.46,8.46,0,0,0,6.37,4.92,1,1,0,0,0,1.23-.7A1,1,0,0,0,269.16,161.57Z" fill="#d1d3d4"></path><path d="M198,139.25l-4.11-1.19a1,1,0,0,0-.53,1.93l4.11,1.19a1,1,0,0,0,.53-1.93Z" fill="#d1d3d4"></path><path d="M196.21,123.34a1,1,0,0,0-.71-.3,1.21,1.21,0,0,0-.68.28h0a8.29,8.29,0,0,1-1.6.94,8.52,8.52,0,0,1-1,.33,1,1,0,0,0-.7,1.23,1,1,0,0,0,1.23.7,8.84,8.84,0,0,0,3.45-1.76,1,1,0,0,0,.29-.71A1,1,0,0,0,196.21,123.34Z" fill="#d1d3d4"></path><path d="M266.33,118.25c-.33-.1-.66-.21-1-.34l-.05,0h0l-.24-.11-.44-.21q-.45-.24-.87-.51c-.15-.09-.29-.19-.43-.29l-.21-.15-.11-.08.05,0a1.1,1.1,0,0,0-.71-.29,1,1,0,0,0-.7.3,1,1,0,0,0,0,1.41,12.47,12.47,0,0,0,4.17,2.2,1,1,0,0,0,.53-1.93Z" fill="#e6e7e8"></path><path d="M249.66,104.46a.93.93,0,0,0-.6-.46l-2.25-.39a1.09,1.09,0,0,0-.77.11,1,1,0,0,0-.46.59,1.07,1.07,0,0,0,.1.77,1,1,0,0,0,.6.46l2.25.39a1.08,1.08,0,0,0,.77-.1,1,1,0,0,0,.36-1.37Z" fill="#e6e7e8"></path><path d="M236.16,123.54a1,1,0,0,0-1.37-.36l-2.63,1.5a1,1,0,1,0,1,1.73l2.63-1.5A1,1,0,0,0,236.16,123.54Z" fill="#e6e7e8"></path><path d="M241.68,98.63a27.08,27.08,0,0,1-6.49-.37A1,1,0,0,0,234,99a1,1,0,0,0,.7,1.23,29,29,0,0,0,7,.45,1,1,0,0,0,0-2Z" fill="#e6e7e8"></path><path d="M259.62,130.81a1,1,0,0,0-1.41,0l-.53.43,0,0-.14.1-.27.2c-.38.28-.77.55-1.17.8a23,23,0,0,1-2.49,1.35,1,1,0,0,0-.36,1.37,1,1,0,0,0,1.37.36,23,23,0,0,0,5-3.23A1,1,0,0,0,259.62,130.81Z" fill="#e6e7e8"></path><path d="M235.54,148.68a1,1,0,0,0-1.23-.7l-5.7,1.62a1,1,0,0,0-.7,1.23,1,1,0,0,0,1.23.7l5.71-1.62A1,1,0,0,0,235.54,148.68Z" fill="#e6e7e8"></path><path d="M278.44,141.72,275,137.28a1,1,0,0,0-.71-.29,1,1,0,0,0-.71.29,1,1,0,0,0-.29.71,1.15,1.15,0,0,0,.29.7q1.74,2.22,3.46,4.45a1,1,0,0,0,.71.29,1.05,1.05,0,0,0,.71-.29,1.07,1.07,0,0,0,.29-.71A1.18,1.18,0,0,0,278.44,141.72Z" fill="#e6e7e8"></path><path d="M284.37,100.92l-4.14-1.49a1,1,0,0,0-1.23.7,1,1,0,0,0,.7,1.23l4.14,1.48a1,1,0,1,0,.53-1.92Z" fill="#e6e7e8"></path><path d="M263.69,91.55a1,1,0,0,0-1.23-.7A34.77,34.77,0,0,1,256,92.57a1,1,0,0,0-.7,1.23,1,1,0,0,0,1.23.7A34.77,34.77,0,0,0,263,92.78,1,1,0,0,0,263.69,91.55Z" fill="#e6e7e8"></path><path d="M300,121.33a1,1,0,0,0-1.37-.36,26.77,26.77,0,0,1-8.9,2.08,1,1,0,0,0,0,2,30,30,0,0,0,9.91-2.35A1,1,0,0,0,300,121.33Z" fill="#e6e7e8"></path><path d="M307.63,133.21a1,1,0,0,0-1.23.7,2.31,2.31,0,0,0-.1.28.42.42,0,0,0,0,.1c-.08.17-.17.35-.26.52s-.19.34-.3.51l-.17.24c0,.06-.25.31,0,.08a10.59,10.59,0,0,1-.79.85l-.22.2-.11.09-.08.06h0l-.12.09-.27.18a1,1,0,0,0,1,1.73,8.44,8.44,0,0,0,3.42-4.4A1,1,0,0,0,307.63,133.21Z" fill="#e6e7e8"></path><path d="M290.16,145.88a2.54,2.54,0,0,1,.36-.37,1,1,0,0,0,.3-.71,1,1,0,0,0-.3-.71,1,1,0,0,0-.7-.29l-.27,0a1,1,0,0,0-.44.26,3.75,3.75,0,0,0-1.09,1.57,3.18,3.18,0,0,0-.2.82,3.54,3.54,0,0,0,0,.86,1.09,1.09,0,0,0,.3.71,1,1,0,0,0,.7.29,1,1,0,0,0,.71-.29.91.91,0,0,0,.29-.71,2.92,2.92,0,0,1,0-.59,3.45,3.45,0,0,1,.12-.46A3.38,3.38,0,0,1,290.16,145.88Z" fill="#e6e7e8"></path><path d="M308.38,156.1l-5.51-4.29a1,1,0,0,0-1.41,0,1,1,0,0,0,0,1.41l5.5,4.3a1,1,0,0,0,1.42-1.42Z" fill="#e6e7e8"></path><path d="M280.59,153.86a1,1,0,0,0-1.23.7c-.37,2.25-.73,4.51-1.1,6.76a1,1,0,0,0,.69,1.23,1,1,0,0,0,1.23-.7l1.11-6.76A1,1,0,0,0,280.59,153.86Z" fill="#e6e7e8"></path><path d="M252.45,158.2a1,1,0,0,0-1-1,1,1,0,0,0-1,1c0,.46,0,.91,0,1.36,0,.2,0,.39,0,.59s0,.22,0,.33,0,.14,0,.17a12.28,12.28,0,0,1-.68,2.53,1,1,0,0,0,.7,1.23,1,1,0,0,0,1.23-.7A13.24,13.24,0,0,0,252.45,158.2Z" fill="#e6e7e8"></path><path d="M206.61,115.14a11.07,11.07,0,0,0-2.52-3.81,1,1,0,1,0-1.42,1.41,6.31,6.31,0,0,1,.66.71l.15.17,0,.06c.1.12.19.25.28.38a9.87,9.87,0,0,1,.92,1.69l0-.06a1.13,1.13,0,0,0,.45.58,1,1,0,0,0,.77.1,1,1,0,0,0,.6-.46A1,1,0,0,0,206.61,115.14Z" fill="#e6e7e8"></path><path d="M220.48,154.39a1,1,0,0,0-.71-.29,1,1,0,0,0-.71.29l-2.47,3.12a1.06,1.06,0,0,0-.3.71,1,1,0,0,0,.3.71,1,1,0,0,0,.7.29,1,1,0,0,0,.71-.29l2.48-3.12a1.1,1.1,0,0,0,.29-.71A1,1,0,0,0,220.48,154.39Z" fill="#e6e7e8"></path><path d="M120.17,152.92s-62.79-18.37-64.43-22.71c-2-5.43-8.13-12.49-11.65-11.39S31,124.14,40.62,133.37c0,0-10.7-.85-8.21,9.12,1.43,5.73,10.85,3.89,17,.1,5.74,1.54,67.26,19.56,67.26,19.56Z" fill="#fff"></path><path d="M116.65,162.65a.36.36,0,0,1-.14,0c-.61-.18-60.25-17.64-67-19.5-4.38,2.65-10.71,4.49-14.52,2.94a4.83,4.83,0,0,1-3-3.46c-.75-3-.41-5.42,1-7.12,1.79-2.11,4.78-2.56,6.47-2.63-2.78-2.92-3.9-5.63-3.33-8.07.91-3.89,5.8-5.81,7.86-6.45,3.88-1.22,10.2,6.21,12.27,11.69,1.13,3,39.92,15.34,64.1,22.41a.57.57,0,0,1,.31.26.51.51,0,0,1,0,.4l-3.52,9.23A.5.5,0,0,1,116.65,162.65ZM49.39,142.09l.13,0c5.42,1.46,61.26,17.8,66.83,19.43l3.16-8.29c-8.49-2.49-62.59-18.52-64.23-22.86-2.06-5.44-8-12-11-11.1-1.48.47-6.37,2.25-7.19,5.73-.54,2.3.78,5,3.92,8a.51.51,0,0,1,.11.57.5.5,0,0,1-.5.29s-4.67-.32-6.87,2.28c-1.22,1.44-1.49,3.53-.82,6.23a3.87,3.87,0,0,0,2.44,2.77c3.55,1.45,9.63-.4,13.8-3A.5.5,0,0,1,49.39,142.09Z" fill="#231f20"></path><path d="M179.82,193.77c6.89-1.16,45.75-25.08,24.87-58.11-21.4-33.87-37.25-22-63.08-17.77C117.75,121.81,109.41,142.44,96,140c-4.1-.73-7.19,1.55-11.29-4.12s-8.19-1-5.32,5.52c0,0-4.89-2.1-6.14,2.66C72.2,148,80.6,149,80.6,149s-9.67-1.25-8,3.48c1.2,3.34,4.51,2.66,9,3.34,7.78,1.19,10.49,2.25,16.63,10.44S121,203.68,179.82,193.77Z" fill="#d79218"></path><path d="M157.35,196.23c-38.2,0-52.33-19.76-58.2-28-.46-.65-.88-1.23-1.26-1.73-5.93-7.92-8.56-9.08-16.34-10.27-1-.15-2-.23-2.88-.31-3-.27-5.46-.48-6.48-3.32a2.6,2.6,0,0,1,.29-2.65c.79-1,2.4-1.39,4-1.53a6.79,6.79,0,0,1-3.28-2.18,2.68,2.68,0,0,1-.39-2.3,4.32,4.32,0,0,1,2.25-3,5.38,5.38,0,0,1,3.56-.23c-1.32-3.69-.45-6.56,1.15-7.48s3.56,0,5.29,2.4c2.83,3.92,5.09,3.86,7.7,3.8a15.56,15.56,0,0,1,3.3.15c6.3,1.14,11.4-2.92,17.87-8.05,6.75-5.36,15.16-12,27.61-14.08,4.49-.73,8.64-1.69,12.65-2.62,19.18-4.44,33-7.64,50.89,20.59,7,11,8.05,22.05,3.25,32.81-7,15.78-24.19,25.27-28.43,26h0A136,136,0,0,1,157.35,196.23Zm-79.3-46.94c-1.88,0-4.08.26-4.88,1.25a1.75,1.75,0,0,0-.13,1.79c.82,2.3,2.76,2.47,5.7,2.73.89.07,1.89.16,3,.32,8.07,1.23,10.78,2.43,16.92,10.61.38.51.8,1.1,1.27,1.75,6.81,9.53,24.91,34.84,79.86,25.59h0c4.56-.76,21.17-10.71,27.76-25.46,4.68-10.47,3.61-21.23-3.18-32-17.51-27.7-31.11-24.56-49.94-20.2-4,.93-8.19,1.89-12.7,2.63-12.22,2-20.18,8.33-27.21,13.9-6.38,5.06-11.89,9.44-18.57,8.23a15.1,15.1,0,0,0-3.12-.14c-2.76.07-5.35.13-8.45-4.16-1.44-2-3-2.8-4.12-2.15-1.42.81-2,3.73-.43,7.23a.46.46,0,0,1-.09.5.44.44,0,0,1-.5.09,5.19,5.19,0,0,0-3.76-.09,3.58,3.58,0,0,0-1.77,2.46,1.85,1.85,0,0,0,.26,1.57c1.39,2,6.36,2.73,6.71,2.78h0a.45.45,0,0,1,.38.5.45.45,0,0,1-.5.39h0A21.35,21.35,0,0,0,78.05,149.29Zm101.77,44.48h0Z" fill="#231f20"></path><path d="M40.62,133.87a.5.5,0,0,1-.07-1c.07,0,1.93-.3,6.1-.59a.5.5,0,1,1,.07,1c-4.12.29-6,.58-6,.58Z" fill="#231f20"></path><path d="M184.28,133.52a.44.44,0,0,1-.32-.13c-6-6.06-16.3-9.62-16.4-9.65a.44.44,0,0,1-.28-.57.45.45,0,0,1,.56-.28c.11,0,10.61,3.66,16.76,9.87a.44.44,0,0,1,0,.63A.42.42,0,0,1,184.28,133.52Z" fill="#231f20"></path><path d="M154.49,196.21h0c-1.45-.05-21.06-6.61-25.55-15.27a.44.44,0,0,1,.19-.6.45.45,0,0,1,.61.19c4.24,8.18,23.42,14.74,24.78,14.78a.46.46,0,0,1,.44.46A.45.45,0,0,1,154.49,196.21Z" fill="#231f20"></path><path d="M187.55,168.59a.45.45,0,0,1-.05-.89c6.59-.77,8.43-5.5,8.5-5.7a.46.46,0,0,1,.58-.27.45.45,0,0,1,.26.58c-.08.22-2.08,5.44-9.23,6.28Z" fill="#231f20"></path><path d="M133.92,136.25a.45.45,0,0,1-.31-.76c1.71-1.71,7.64-3.09,7.9-3.14a.43.43,0,0,1,.53.33.45.45,0,0,1-.33.54c-1.65.37-6.2,1.63-7.47,2.9A.44.44,0,0,1,133.92,136.25Z" fill="#231f20"></path><path d="M257.05,165.92a51.74,51.74,0,0,0-32.39,0h-8.58v8c0,5.88,11.1,10.64,24.78,10.64s24.78-4.76,24.78-10.64v-8Z" fill="#d79218"></path><path d="M240.86,185.05c-14.14,0-25.22-4.87-25.22-11.09v-8a.45.45,0,0,1,.44-.45h8.5a52.43,52.43,0,0,1,32.55,0h8.51a.45.45,0,0,1,.44.45v8C266.08,180.18,255,185.05,240.86,185.05Zm-24.33-18.69V174c0,5.62,10.91,10.19,24.33,10.19s24.33-4.57,24.33-10.19v-7.6h-8.14l-.15,0a51.53,51.53,0,0,0-32.08,0,.41.41,0,0,1-.16,0Z" fill="#231f20"></path><ellipse cx="240.86" cy="165.92" rx="24.78" ry="10.64" fill="#fff"></ellipse><path d="M240.86,177.05c-14.17,0-25.28-4.89-25.28-11.13s11.11-11.14,25.28-11.14,25.28,4.89,25.28,11.14S255,177.05,240.86,177.05Zm0-21.27c-13.39,0-24.28,4.55-24.28,10.14s10.89,10.13,24.28,10.13,24.28-4.55,24.28-10.13S254.25,155.78,240.86,155.78Z" fill="#231f20"></path><path d="M240.86,174.62c-11,0-19.62-3.82-19.62-8.7s8.62-8.71,19.62-8.71,19.62,3.82,19.62,8.71S251.86,174.62,240.86,174.62Zm0-16.41c-10.09,0-18.62,3.53-18.62,7.71s8.53,7.7,18.62,7.7,18.62-3.53,18.62-7.7S251,158.21,240.86,158.21Z" fill="#d1d3d4"></path><ellipse cx="240.86" cy="165.92" rx="11.06" ry="4.75" fill="#d1d3d4"></ellipse><path d="M240,165s-2.51-1.93-1.8-2.6,3.14-.71,3.37-.27A2.78,2.78,0,0,1,240,165Z" fill="#fff"></path><path d="M238.62,165.76s-5.1-.22-6-.85.45-1.52,1.43-1.35S238.21,164.89,238.62,165.76Z" fill="#fff"></path><path d="M239,166.56s-3.21,1.72-4.93,1.69-2.71-1-1.85-1.24A23.57,23.57,0,0,1,239,166.56Z" fill="#fff"></path><path d="M240.53,166.61s2.66,1.88,2,2.57-3.09.75-3.35.31A2.62,2.62,0,0,1,240.53,166.61Z" fill="#fff"></path><path d="M243.41,166.33s5.14,0,6.14.64-.16,1.52-1.16,1.39S244,167.18,243.41,166.33Z" fill="#fff"></path><path d="M242.25,165.63s1.77-2.06,3.42-2.27,3.3.57,2.67.93A18,18,0,0,1,242.25,165.63Z" fill="#fff"></path><path d="M303.77,177.47a51.93,51.93,0,0,0-32.39,0H262.8v8c0,5.88,11.09,10.64,24.78,10.64s24.77-4.76,24.77-10.64v-8Z" fill="#d79218"></path><path d="M287.58,196.6c-14.15,0-25.23-4.87-25.23-11.09v-8a.45.45,0,0,1,.45-.45h8.5a52.43,52.43,0,0,1,32.55,0h8.5a.45.45,0,0,1,.45.45v8C312.8,191.73,301.72,196.6,287.58,196.6Zm-24.33-18.69v7.6c0,5.62,10.91,10.19,24.33,10.19s24.33-4.57,24.33-10.19v-7.6h-8.14l-.15,0a51.34,51.34,0,0,0-32.08,0l-.16,0Z" fill="#231f20"></path><ellipse cx="287.58" cy="177.47" rx="24.78" ry="10.64" fill="#fff"></ellipse><path d="M287.58,188.6c-14.18,0-25.28-4.89-25.28-11.13s11.1-11.14,25.28-11.14,25.27,4.89,25.27,11.14S301.75,188.6,287.58,188.6Zm0-21.27c-13.39,0-24.28,4.55-24.28,10.14s10.89,10.13,24.28,10.13,24.27-4.54,24.27-10.13S301,167.33,287.58,167.33Z" fill="#231f20"></path><path d="M287.58,186.17c-11,0-19.62-3.82-19.62-8.7s8.62-8.71,19.62-8.71,19.62,3.82,19.62,8.71S298.58,186.17,287.58,186.17Zm0-16.41c-10.09,0-18.62,3.53-18.62,7.71s8.53,7.7,18.62,7.7,18.62-3.52,18.62-7.7S297.67,169.76,287.58,169.76Z" fill="#d1d3d4"></path><ellipse cx="287.58" cy="177.47" rx="11.06" ry="4.75" fill="#d1d3d4"></ellipse><path d="M286.7,176.54s-2.51-1.93-1.81-2.6,3.15-.71,3.38-.27A2.79,2.79,0,0,1,286.7,176.54Z" fill="#fff"></path><path d="M285.34,177.31s-5.11-.22-6-.85.45-1.51,1.42-1.35S284.93,176.45,285.34,177.31Z" fill="#fff"></path><path d="M285.75,178.11s-3.21,1.72-4.93,1.69-2.71-1-1.85-1.24A23.57,23.57,0,0,1,285.75,178.11Z" fill="#fff"></path><path d="M287.25,178.16s2.66,1.88,2,2.57-3.09.75-3.35.31A2.62,2.62,0,0,1,287.25,178.16Z" fill="#fff"></path><path d="M290.13,177.88s5.14,0,6.14.64-.16,1.53-1.16,1.39S290.71,178.73,290.13,177.88Z" fill="#fff"></path><path d="M289,177.19s1.78-2.07,3.43-2.28,3.3.57,2.67.93A18.21,18.21,0,0,1,289,177.19Z" fill="#fff"></path><path d="M252.2,185.25a51.93,51.93,0,0,0-32.39,0h-8.58v8c0,5.88,11.09,10.64,24.78,10.64s24.77-4.76,24.77-10.64v-8Z" fill="#d79218"></path><path d="M236,204.38c-14.14,0-25.22-4.87-25.22-11.09v-8a.45.45,0,0,1,.44-.45h8.5a52.43,52.43,0,0,1,32.55,0h8.51a.45.45,0,0,1,.44.45v8C261.23,199.51,250.15,204.38,236,204.38Zm-24.33-18.69v7.6c0,5.62,10.91,10.19,24.33,10.19s24.33-4.57,24.33-10.19v-7.6H252.2l-.15,0a51.34,51.34,0,0,0-32.08,0l-.16,0Z" fill="#231f20"></path><ellipse cx="236.01" cy="185.25" rx="24.78" ry="10.64" fill="#fff"></ellipse><path d="M236,196.38c-14.18,0-25.28-4.89-25.28-11.13s11.1-11.14,25.28-11.14,25.28,4.89,25.28,11.14S250.18,196.38,236,196.38Zm0-21.27c-13.39,0-24.28,4.55-24.28,10.14s10.89,10.13,24.28,10.13,24.28-4.54,24.28-10.13S249.39,175.11,236,175.11Z" fill="#231f20"></path><path d="M236,194c-11,0-19.62-3.82-19.62-8.7s8.62-8.71,19.62-8.71,19.62,3.82,19.62,8.71S247,194,236,194Zm0-16.41c-10.09,0-18.62,3.53-18.62,7.71S225.92,193,236,193s18.62-3.53,18.62-7.7S246.1,177.54,236,177.54Z" fill="#d1d3d4"></path><ellipse cx="236.01" cy="185.25" rx="11.06" ry="4.75" fill="#d1d3d4"></ellipse><path d="M235.13,184.32s-2.51-1.93-1.81-2.6,3.15-.71,3.38-.27A2.79,2.79,0,0,1,235.13,184.32Z" fill="#fff"></path><path d="M233.77,185.09s-5.11-.22-6-.85.45-1.51,1.42-1.35S233.36,184.23,233.77,185.09Z" fill="#fff"></path><path d="M234.18,185.89s-3.21,1.72-4.93,1.69-2.71-1-1.85-1.24A23.57,23.57,0,0,1,234.18,185.89Z" fill="#fff"></path><path d="M235.68,185.94s2.66,1.88,2,2.57-3.09.75-3.35.31A2.62,2.62,0,0,1,235.68,185.94Z" fill="#fff"></path><path d="M238.56,185.66s5.14,0,6.14.64-.16,1.53-1.16,1.39S239.14,186.51,238.56,185.66Z" fill="#fff"></path><path d="M237.39,185s1.78-2.07,3.43-2.28,3.3.57,2.67.93A18.21,18.21,0,0,1,237.39,185Z" fill="#fff"></path></g></svg>